{"asset":{"version":"2.0","generator":"babylon.js glTF exporter for 3dsmax 2021 v20251111.2"},"scene":0,"scenes":[{"nodes":[0]}],"nodes":[{"mesh":0,"rotation":[4.371139E-08,-4.371139E-08,4.371139E-08,1.0],"name":"Line165"}],"meshes":[{"primitives":[{"attributes":{"POSITION":1,"NORMAL":2},"indices":0,"material":0}],"name":"Line165"}],"accessors":[{"bufferView":0,"componentType":5123,"count":1248,"type":"SCALAR","name":"accessorIndices"},{"bufferView":1,"componentType":5126,"count":489,"max":[0.19201006,0.0286403652,0.02864025],"min":[-0.19201006,-0.0286402889,-0.02864025],"type":"VEC3","name":"accessorPositions"},{"bufferView":1,"byteOffset":5868,"componentType":5126,"count":489,"type":"VEC3","name":"accessorNormals"}],"bufferViews":[{"buffer":0,"byteLength":2496,"name":"bufferViewScalar"},{"buffer":0,"byteOffset":2496,"byteLength":11736,"byteStride":12,"name":"bufferViewFloatVec3"}],"buffers":[{"uri":"ctf_profil.bin","byteLength":14232}],"materials":[{"pbrMetallicRoughness":{"baseColorFactor":[0.5,0.5,0.5,1.0],"metallicFactor":0.0,"roughnessFactor":0.0},"doubleSided":true,"name":"Material #4824","extras":{"babylonSeparateCullingPass":false}}]}