{"asset":{"version":"2.0","generator":"babylon.js glTF exporter for 3dsmax 2021 v20251111.2"},"scene":0,"scenes":[{"nodes":[0]}],"nodes":[{"mesh":0,"rotation":[8.742278E-08,-8.742278E-08,7.642742E-15,1.0],"name":"Line166"}],"meshes":[{"primitives":[{"attributes":{"POSITION":1,"NORMAL":2,"TEXCOORD_0":3},"indices":0,"material":0}],"name":"Line166"}],"accessors":[{"bufferView":0,"componentType":5123,"count":12474,"type":"SCALAR","name":"accessorIndices"},{"bufferView":1,"componentType":5126,"count":3785,"max":[0.05899742,0.058997497,0.0589975342],"min":[-0.05899742,-0.058997497,-0.05899757],"type":"VEC3","name":"accessorPositions"},{"bufferView":1,"byteOffset":45420,"componentType":5126,"count":3785,"type":"VEC3","name":"accessorNormals"},{"bufferView":2,"componentType":5126,"count":3785,"type":"VEC2","name":"accessorUVs"}],"bufferViews":[{"buffer":0,"byteLength":24948,"name":"bufferViewScalar"},{"buffer":0,"byteOffset":24948,"byteLength":90840,"byteStride":12,"name":"bufferViewFloatVec3"},{"buffer":0,"byteOffset":115788,"byteLength":30280,"byteStride":8,"name":"bufferViewFloatVec2"}],"buffers":[{"uri":"ctf_lacznik.bin","byteLength":146068}],"materials":[{"pbrMetallicRoughness":{"baseColorFactor":[0.5,0.5,0.5,1.0],"metallicFactor":0.0,"roughnessFactor":0.0},"doubleSided":true,"name":"Material #4824","extras":{"babylonSeparateCullingPass":false}}]}